
<svg width="512" height="512" viewBox="0 0 512 512" fill="none" xmlns="http://www.w3.org/2000/svg">
  <!-- Background: Warm Cream from the illustration -->
  <rect width="512" height="512" rx="112" fill="#FDF4D7"/>
  
  <!-- Decorative Stars and Paws in background -->
  <path d="M430 80L435 95H450L438 105L442 120L430 110L418 120L422 105L410 95H425L430 80Z" fill="#FBBF24" opacity="0.4"/>
  <circle cx="80" cy="430" r="20" fill="#B45309" opacity="0.1"/>
  <circle cx="110" cy="410" r="10" fill="#B45309" opacity="0.1"/>
  <circle cx="60" cy="400" r="10" fill="#B45309" opacity="0.1"/>
  <circle cx="90" cy="385" r="10" fill="#B45309" opacity="0.1"/>

  <!-- Dog's Ears (Floppy and Tan) -->
  <path d="M120 180C80 100 160 80 200 140" stroke="#D97706" stroke-width="40" stroke-linecap="round" fill="#F59E0B"/>
  <path d="M392 180C432 100 352 80 312 140" stroke="#D97706" stroke-width="40" stroke-linecap="round" fill="#F59E0B"/>

  <!-- Dog's Head Base -->
  <path d="M256 420C360 420 400 340 400 240C400 160 340 120 256 120C172 120 112 160 112 240C112 340 152 420 256 420Z" fill="white" stroke="#E5E7EB" stroke-width="2"/>
  
  <!-- Tan Patches around eyes -->
  <path d="M140 240C140 180 220 180 220 240C220 280 140 280 140 240Z" fill="#FDE68A" opacity="0.6"/>
  <path d="M372 240C372 180 292 180 292 240C292 280 372 280 372 240Z" fill="#FDE68A" opacity="0.6"/>

  <!-- Eyes: Sparkling and bright like the image -->
  <circle cx="190" cy="245" r="28" fill="#3D2B1F"/>
  <circle cx="322" cy="245" r="28" fill="#3D2B1F"/>
  <circle cx="180" cy="235" r="10" fill="white"/>
  <circle cx="312" cy="235" r="10" fill="white"/>
  <circle cx="200" cy="255" r="4" fill="white" opacity="0.5"/>
  <circle cx="332" cy="255" r="4" fill="white" opacity="0.5"/>

  <!-- Nose -->
  <rect x="236" y="285" width="40" height="25" rx="12" fill="#27272A"/>
  
  <!-- Mouth: Happy smile and tongue -->
  <path d="M210 320C210 320 230 360 256 360C282 360 302 320 302 320" stroke="#3D2B1F" stroke-width="8" stroke-linecap="round" fill="none"/>
  <path d="M236 345C236 365 276 365 276 345C276 335 236 335 236 345Z" fill="#FB7185"/>

  <!-- Pink Shirt (Collar area) -->
  <path d="M150 400C180 440 332 440 362 400L340 380H172L150 400Z" fill="#F472B6"/>
  <path d="M256 390L230 420L256 430L282 420L256 390Z" fill="white" opacity="0.3"/>
</svg>
